<?xml version="1.0" encoding="UTF-8" standalone="no"?>
<!DOCTYPE svg PUBLIC "-//W3C//DTD SVG 1.1//EN"
 "http://www.w3.org/Graphics/SVG/1.1/DTD/svg11.dtd">
<!-- Generated by graphviz version 2.38.0 (20140413.2041)
 -->
<!-- Title: Top Pages: 1 -->
<svg width="779pt" height="465pt"
 viewBox="0.00 0.00 779.00 465.00" xmlns="http://www.w3.org/2000/svg" xmlns:xlink="http://www.w3.org/1999/xlink">
<g id="graph0" class="graph" transform="scale(1 1) rotate(0) translate(4 461)">
<title>Top</title>
<polygon fill="white" stroke="none" points="-4,4 -4,-461 775,-461 775,4 -4,4"/>
<g id="clust1" class="cluster"><title>cluster_legend</title>
<polygon fill="beige" stroke="beige" points="8,-224 8,-449 86,-449 86,-224 8,-224"/>
<text text-anchor="middle" x="47" y="-438.6" font-family="Times New Roman,serif" font-size="8.00">Legend</text>
</g>
<g id="clust2" class="cluster"><title>cluster_Data</title>
<polygon fill="white" stroke="white" points="94,-8 94,-436 763,-436 763,-8 94,-8"/>
</g>
<!-- InProgress -->
<g id="node1" class="node"><title>InProgress</title>
<ellipse fill="palegreen" stroke="palegreen" cx="47" cy="-406" rx="30.1263" ry="18"/>
<text text-anchor="middle" x="47" y="-404.1" font-family="Times New Roman,serif" font-size="8.00">InProgress</text>
</g>
<!-- NotStarted -->
<g id="node2" class="node"><title>NotStarted</title>
<ellipse fill="gray" stroke="gray" cx="47" cy="-326" rx="30.7612" ry="18"/>
<text text-anchor="middle" x="47" y="-324.1" font-family="Times New Roman,serif" font-size="8.00">NotStarted</text>
</g>
<!-- InProgress&#45;&gt;NotStarted -->
<!-- Completed -->
<g id="node3" class="node"><title>Completed</title>
<ellipse fill="turquoise" stroke="turquoise" cx="47" cy="-250" rx="30.7612" ry="18"/>
<text text-anchor="middle" x="47" y="-248.1" font-family="Times New Roman,serif" font-size="8.00">Completed</text>
</g>
<!-- NotStarted&#45;&gt;Completed -->
<!-- ProjectInitiation -->
<g id="node4" class="node"><title>ProjectInitiation</title>
<g id="a_node4"><a xlink:href="http://agilemanifesto.org/" xlink:title="ProjectInitiation">
<polygon fill="turquoise" stroke="turquoise" points="504.318,-398.544 504.318,-413.456 461.369,-424 400.631,-424 357.682,-413.456 357.682,-398.544 400.631,-388 461.369,-388 504.318,-398.544"/>
<polygon fill="none" stroke="turquoise" points="508.327,-395.409 508.327,-416.591 461.855,-428 400.145,-428 353.673,-416.591 353.673,-395.409 400.145,-384 461.855,-384 508.327,-395.409"/>
<text text-anchor="middle" x="431" y="-402.3" font-family="Times New Roman,serif" font-size="14.00">ProjectInitiation</text>
</a>
</g>
</g>
<!-- Epic1 -->
<g id="node5" class="node"><title>Epic1</title>
<g id="a_node5"><a xlink:href="https://www.yodiz.com/blog/what-is-epic-in-agile-methodology-definition-and-template-of-epic/" xlink:title="Epic1">
<polygon fill="palegreen" stroke="palegreen" points="382.445,-318.544 382.445,-333.456 362.268,-344 333.732,-344 313.555,-333.456 313.555,-318.544 333.732,-308 362.268,-308 382.445,-318.544"/>
<polygon fill="none" stroke="palegreen" points="386.442,-316.12 386.442,-335.88 363.248,-348 332.752,-348 309.558,-335.88 309.558,-316.12 332.752,-304 363.248,-304 386.442,-316.12"/>
<text text-anchor="middle" x="348" y="-322.3" font-family="Times New Roman,serif" font-size="14.00">Epic1</text>
</a>
</g>
</g>
<!-- ProjectInitiation&#45;&gt;Epic1 -->
<g id="edge3" class="edge"><title>ProjectInitiation&#45;&gt;Epic1</title>
<path fill="none" stroke="black" d="M408.32,-383.686C398.123,-374.104 386.004,-362.714 375.312,-352.667"/>
<polygon fill="black" stroke="black" points="377.512,-349.931 367.828,-345.633 372.718,-355.032 377.512,-349.931"/>
</g>
<!-- Epic2 -->
<g id="node15" class="node"><title>Epic2</title>
<polygon fill="palegreen" stroke="palegreen" points="549.445,-318.544 549.445,-333.456 529.268,-344 500.732,-344 480.555,-333.456 480.555,-318.544 500.732,-308 529.268,-308 549.445,-318.544"/>
<polygon fill="none" stroke="palegreen" points="553.442,-316.12 553.442,-335.88 530.248,-348 499.752,-348 476.558,-335.88 476.558,-316.12 499.752,-304 530.248,-304 553.442,-316.12"/>
<text text-anchor="middle" x="515" y="-322.3" font-family="Times New Roman,serif" font-size="14.00">Epic2</text>
</g>
<!-- ProjectInitiation&#45;&gt;Epic2 -->
<g id="edge13" class="edge"><title>ProjectInitiation&#45;&gt;Epic2</title>
<path fill="none" stroke="black" d="M453.953,-383.686C464.273,-374.104 476.538,-362.714 487.358,-352.667"/>
<polygon fill="black" stroke="black" points="489.987,-355.003 494.933,-345.633 485.224,-349.873 489.987,-355.003"/>
</g>
<!-- BaselineAnalysis -->
<g id="node6" class="node"><title>BaselineAnalysis</title>
<ellipse fill="turquoise" stroke="turquoise" cx="173" cy="-250" rx="71.4873" ry="18"/>
<text text-anchor="middle" x="173" y="-246.3" font-family="Times New Roman,serif" font-size="14.00">BaselineAnalysis</text>
</g>
<!-- Epic1&#45;&gt;BaselineAnalysis -->
<g id="edge4" class="edge"><title>Epic1&#45;&gt;BaselineAnalysis</title>
<path fill="none" stroke="#8b7500" d="M317.116,-311.941C289.461,-300.246 248.582,-282.96 217.418,-269.783"/>
<polygon fill="#8b7500" stroke="#8b7500" points="218.658,-266.507 208.084,-265.836 215.932,-272.954 218.658,-266.507"/>
</g>
<!-- Undestand_comp_1 -->
<g id="node7" class="node"><title>Undestand_comp_1</title>
<ellipse fill="turquoise" stroke="turquoise" cx="348" cy="-250" rx="85.2851" ry="18"/>
<text text-anchor="middle" x="348" y="-246.3" font-family="Times New Roman,serif" font-size="14.00">Undestand_comp_1</text>
</g>
<!-- Epic1&#45;&gt;Undestand_comp_1 -->
<g id="edge5" class="edge"><title>Epic1&#45;&gt;Undestand_comp_1</title>
<path fill="none" stroke="#8b7500" d="M348,-303.993C348,-296.061 348,-286.915 348,-278.478"/>
<polygon fill="#8b7500" stroke="#8b7500" points="351.5,-278.315 348,-268.315 344.5,-278.315 351.5,-278.315"/>
</g>
<!-- Analyze_current_code -->
<g id="node8" class="node"><title>Analyze_current_code</title>
<ellipse fill="none" stroke="turquoise" cx="227" cy="-178" rx="92.8835" ry="18"/>
<polyline fill="none" stroke="turquoise" points="288.472,-191.5 165.528,-191.5 "/>
<polyline fill="none" stroke="turquoise" points="288.472,-164.5 165.528,-164.5 "/>
<text text-anchor="middle" x="227" y="-174.3" font-family="Times New Roman,serif" font-size="14.00">Analyze_current_code</text>
</g>
<!-- Undestand_comp_1&#45;&gt;Analyze_current_code -->
<g id="edge6" class="edge"><title>Undestand_comp_1&#45;&gt;Analyze_current_code</title>
<path fill="none" stroke="#8b7500" d="M320.24,-232.941C303.604,-223.316 282.241,-210.958 264.162,-200.499"/>
<polygon fill="#8b7500" stroke="#8b7500" points="265.458,-197.205 255.05,-195.227 261.953,-203.264 265.458,-197.205"/>
</g>
<!-- Rewrite_comp_1 -->
<g id="node10" class="node"><title>Rewrite_comp_1</title>
<ellipse fill="turquoise" stroke="turquoise" cx="411" cy="-178" rx="73.387" ry="18"/>
<text text-anchor="middle" x="411" y="-174.3" font-family="Times New Roman,serif" font-size="14.00">Rewrite_comp_1</text>
</g>
<!-- Undestand_comp_1&#45;&gt;Rewrite_comp_1 -->
<g id="edge8" class="edge"><title>Undestand_comp_1&#45;&gt;Rewrite_comp_1</title>
<path fill="none" stroke="black" d="M363.251,-232.055C370.989,-223.457 380.529,-212.857 389.042,-203.397"/>
<polygon fill="black" stroke="black" points="391.802,-205.563 395.89,-195.789 386.599,-200.881 391.802,-205.563"/>
</g>
<!-- Write_test_cases -->
<g id="node9" class="node"><title>Write_test_cases</title>
<ellipse fill="none" stroke="turquoise" cx="227" cy="-106" rx="73.387" ry="18"/>
<polyline fill="none" stroke="turquoise" points="275.576,-119.5 178.424,-119.5 "/>
<polyline fill="none" stroke="turquoise" points="275.576,-92.5 178.424,-92.5 "/>
<text text-anchor="middle" x="227" y="-102.3" font-family="Times New Roman,serif" font-size="14.00">Write_test_cases</text>
</g>
<!-- Analyze_current_code&#45;&gt;Write_test_cases -->
<g id="edge7" class="edge"><title>Analyze_current_code&#45;&gt;Write_test_cases</title>
<path fill="none" stroke="black" d="M227,-159.697C227,-151.983 227,-142.712 227,-134.112"/>
<polygon fill="black" stroke="black" points="230.5,-134.104 227,-124.104 223.5,-134.104 230.5,-134.104"/>
</g>
<!-- Design_comp1 -->
<g id="node11" class="node"><title>Design_comp1</title>
<ellipse fill="none" stroke="turquoise" cx="411" cy="-106" rx="65.7887" ry="18"/>
<polyline fill="none" stroke="turquoise" points="454.417,-119.5 367.583,-119.5 "/>
<polyline fill="none" stroke="turquoise" points="454.417,-92.5 367.583,-92.5 "/>
<text text-anchor="middle" x="411" y="-102.3" font-family="Times New Roman,serif" font-size="14.00">Design_comp1</text>
</g>
<!-- Rewrite_comp_1&#45;&gt;Design_comp1 -->
<g id="edge9" class="edge"><title>Rewrite_comp_1&#45;&gt;Design_comp1</title>
<path fill="none" stroke="#8b7500" d="M411,-159.697C411,-151.983 411,-142.712 411,-134.112"/>
<polygon fill="#8b7500" stroke="#8b7500" points="414.5,-134.104 411,-124.104 407.5,-134.104 414.5,-134.104"/>
</g>
<!-- Implement_comp1 -->
<g id="node12" class="node"><title>Implement_comp1</title>
<ellipse fill="none" stroke="turquoise" cx="229" cy="-34" rx="79.0865" ry="18"/>
<polyline fill="none" stroke="turquoise" points="281.444,-47.5 176.556,-47.5 "/>
<polyline fill="none" stroke="turquoise" points="281.444,-20.5 176.556,-20.5 "/>
<text text-anchor="middle" x="229" y="-30.3" font-family="Times New Roman,serif" font-size="14.00">Implement_comp1</text>
</g>
<!-- Design_comp1&#45;&gt;Implement_comp1 -->
<g id="edge10" class="edge"><title>Design_comp1&#45;&gt;Implement_comp1</title>
<path fill="none" stroke="black" d="M374.607,-91.0027C346.619,-80.2382 307.696,-65.2676 277.133,-53.5129"/>
<polygon fill="black" stroke="black" points="278.119,-50.1419 267.529,-49.8188 275.606,-56.6754 278.119,-50.1419"/>
</g>
<!-- Handle_corner_case -->
<g id="node13" class="node"><title>Handle_corner_case</title>
<ellipse fill="none" stroke="turquoise" cx="411" cy="-34" rx="85.2851" ry="18"/>
<polyline fill="none" stroke="turquoise" points="467.313,-47.5 354.687,-47.5 "/>
<polyline fill="none" stroke="turquoise" points="467.313,-20.5 354.687,-20.5 "/>
<text text-anchor="middle" x="411" y="-30.3" font-family="Times New Roman,serif" font-size="14.00">Handle_corner_case</text>
</g>
<!-- Design_comp1&#45;&gt;Handle_corner_case -->
<g id="edge11" class="edge"><title>Design_comp1&#45;&gt;Handle_corner_case</title>
<path fill="none" stroke="black" d="M411,-87.6966C411,-79.9827 411,-70.7125 411,-62.1124"/>
<polygon fill="black" stroke="black" points="414.5,-62.1043 411,-52.1043 407.5,-62.1044 414.5,-62.1043"/>
</g>
<!-- User_testing_comp1 -->
<g id="node14" class="node"><title>User_testing_comp1</title>
<ellipse fill="palegreen" stroke="palegreen" cx="601" cy="-34" rx="86.3847" ry="18"/>
<text text-anchor="middle" x="601" y="-30.3" font-family="Times New Roman,serif" font-size="14.00">User_testing_comp1</text>
</g>
<!-- Design_comp1&#45;&gt;User_testing_comp1 -->
<g id="edge12" class="edge"><title>Design_comp1&#45;&gt;User_testing_comp1</title>
<path fill="none" stroke="black" d="M448.538,-91.1703C477.745,-80.4099 518.558,-65.3733 550.608,-53.5653"/>
<polygon fill="black" stroke="black" points="552.078,-56.754 560.251,-50.0127 549.658,-50.1856 552.078,-56.754"/>
</g>
<!-- Lots_of_work -->
<g id="node16" class="node"><title>Lots_of_work</title>
<ellipse fill="palegreen" stroke="palegreen" cx="515" cy="-250" rx="63.8893" ry="18"/>
<text text-anchor="middle" x="515" y="-246.3" font-family="Times New Roman,serif" font-size="14.00">Lots_of_work</text>
</g>
<!-- Epic2&#45;&gt;Lots_of_work -->
<g id="edge14" class="edge"><title>Epic2&#45;&gt;Lots_of_work</title>
<path fill="none" stroke="#8b7500" d="M515,-303.993C515,-296.061 515,-286.915 515,-278.478"/>
<polygon fill="#8b7500" stroke="#8b7500" points="518.5,-278.315 515,-268.315 511.5,-278.315 518.5,-278.315"/>
</g>
<!-- Legacy_integration -->
<g id="node17" class="node"><title>Legacy_integration</title>
<ellipse fill="palegreen" stroke="palegreen" cx="676" cy="-250" rx="79.0865" ry="18"/>
<text text-anchor="middle" x="676" y="-246.3" font-family="Times New Roman,serif" font-size="14.00">Legacy_integration</text>
</g>
<!-- Epic2&#45;&gt;Legacy_integration -->
<g id="edge15" class="edge"><title>Epic2&#45;&gt;Legacy_integration</title>
<path fill="none" stroke="#8b7500" d="M544.53,-311.427C569.406,-299.994 605.313,-283.49 633.318,-270.618"/>
<polygon fill="#8b7500" stroke="#8b7500" points="634.86,-273.761 642.485,-266.404 631.937,-267.401 634.86,-273.761"/>
</g>
<!-- Understand_legacy_system -->
<g id="node18" class="node"><title>Understand_legacy_system</title>
<ellipse fill="none" stroke="palegreen" cx="645" cy="-178" rx="110.48" ry="18"/>
<polyline fill="none" stroke="palegreen" points="718.078,-191.5 571.922,-191.5 "/>
<polyline fill="none" stroke="palegreen" points="718.078,-164.5 571.922,-164.5 "/>
<text text-anchor="middle" x="645" y="-174.3" font-family="Times New Roman,serif" font-size="14.00">Understand_legacy_system</text>
</g>
<!-- Legacy_integration&#45;&gt;Understand_legacy_system -->
<g id="edge16" class="edge"><title>Legacy_integration&#45;&gt;Understand_legacy_system</title>
<path fill="none" stroke="#8b7500" d="M668.496,-232.055C664.969,-224.091 660.682,-214.411 656.74,-205.51"/>
<polygon fill="#8b7500" stroke="#8b7500" points="659.9,-204.002 652.65,-196.275 653.5,-206.836 659.9,-204.002"/>
</g>
<!-- Integrate -->
<g id="node19" class="node"><title>Integrate</title>
<ellipse fill="none" stroke="palegreen" cx="645" cy="-106" rx="42.4939" ry="18"/>
<polyline fill="none" stroke="palegreen" points="672.942,-119.5 617.058,-119.5 "/>
<polyline fill="none" stroke="palegreen" points="672.942,-92.5 617.058,-92.5 "/>
<text text-anchor="middle" x="645" y="-102.3" font-family="Times New Roman,serif" font-size="14.00">Integrate</text>
</g>
<!-- Understand_legacy_system&#45;&gt;Integrate -->
<g id="edge17" class="edge"><title>Understand_legacy_system&#45;&gt;Integrate</title>
<path fill="none" stroke="black" d="M645,-159.697C645,-151.983 645,-142.712 645,-134.112"/>
<polygon fill="black" stroke="black" points="648.5,-134.104 645,-124.104 641.5,-134.104 648.5,-134.104"/>
</g>
</g>
</svg>
