<?xml version="1.0" encoding="UTF-8" standalone="no"?>
<!DOCTYPE svg PUBLIC "-//W3C//DTD SVG 1.1//EN"
 "http://www.w3.org/Graphics/SVG/1.1/DTD/svg11.dtd">
<!-- Generated by graphviz version 2.38.0 (20140413.2041)
 -->
<!-- Title: Top Pages: 1 -->
<svg width="663pt" height="461pt"
 viewBox="0.00 0.00 663.00 461.00" xmlns="http://www.w3.org/2000/svg" xmlns:xlink="http://www.w3.org/1999/xlink">
<g id="graph0" class="graph" transform="scale(1 1) rotate(0) translate(4 457)">
<title>Top</title>
<polygon fill="white" stroke="none" points="-4,4 -4,-457 659,-457 659,4 -4,4"/>
<g id="clust1" class="cluster"><title>cluster_legend</title>
<polygon fill="beige" stroke="beige" points="8,-152 8,-445 86,-445 86,-152 8,-152"/>
<text text-anchor="middle" x="47" y="-434.6" font-family="Times New Roman,serif" font-size="8.00">Legend</text>
</g>
<g id="clust2" class="cluster"><title>cluster_Data</title>
<polygon fill="white" stroke="white" points="94,-8 94,-428 647,-428 647,-8 94,-8"/>
</g>
<!-- InProgress -->
<g id="node1" class="node"><title>InProgress</title>
<ellipse fill="palegreen" stroke="palegreen" cx="47" cy="-402" rx="30.1263" ry="18"/>
<text text-anchor="middle" x="47" y="-400.1" font-family="Times New Roman,serif" font-size="8.00">InProgress</text>
</g>
<!-- NotStarted -->
<g id="node2" class="node"><title>NotStarted</title>
<ellipse fill="gray" stroke="gray" cx="47" cy="-326" rx="30.7612" ry="18"/>
<text text-anchor="middle" x="47" y="-324.1" font-family="Times New Roman,serif" font-size="8.00">NotStarted</text>
</g>
<!-- InProgress&#45;&gt;NotStarted -->
<!-- Completed -->
<g id="node3" class="node"><title>Completed</title>
<ellipse fill="turquoise" stroke="turquoise" cx="47" cy="-250" rx="30.7612" ry="18"/>
<text text-anchor="middle" x="47" y="-248.1" font-family="Times New Roman,serif" font-size="8.00">Completed</text>
</g>
<!-- NotStarted&#45;&gt;Completed -->
<!-- Missed -->
<g id="node4" class="node"><title>Missed</title>
<ellipse fill="orange" stroke="orange" cx="47" cy="-178" rx="27" ry="18"/>
<text text-anchor="middle" x="47" y="-176.1" font-family="Times New Roman,serif" font-size="8.00">Missed</text>
</g>
<!-- Completed&#45;&gt;Missed -->
<!-- Epic1 -->
<g id="node5" class="node"><title>Epic1</title>
<g id="a_node5"><a xlink:href="https://www.yodiz.com/blog/what-is-epic-in-agile-methodology-definition-and-template-of-epic/" xlink:title="Epic1">
<polygon fill="palegreen" stroke="palegreen" points="397.445,-318.544 397.445,-333.456 377.268,-344 348.732,-344 328.555,-333.456 328.555,-318.544 348.732,-308 377.268,-308 397.445,-318.544"/>
<polygon fill="none" stroke="palegreen" points="401.442,-316.12 401.442,-335.88 378.248,-348 347.752,-348 324.558,-335.88 324.558,-316.12 347.752,-304 378.248,-304 401.442,-316.12"/>
<text text-anchor="middle" x="363" y="-322.3" font-family="Times New Roman,serif" font-size="14.00">Epic1</text>
</a>
</g>
</g>
<!-- Undestand_comp_1 -->
<g id="node6" class="node"><title>Undestand_comp_1</title>
<ellipse fill="turquoise" stroke="turquoise" cx="363" cy="-250" rx="85.2851" ry="18"/>
<text text-anchor="middle" x="363" y="-246.3" font-family="Times New Roman,serif" font-size="14.00">Undestand_comp_1</text>
</g>
<!-- Epic1&#45;&gt;Undestand_comp_1 -->
<g id="edge5" class="edge"><title>Epic1&#45;&gt;Undestand_comp_1</title>
<path fill="none" stroke="#8b7500" d="M363,-303.993C363,-296.061 363,-286.915 363,-278.478"/>
<polygon fill="#8b7500" stroke="#8b7500" points="366.5,-278.315 363,-268.315 359.5,-278.315 366.5,-278.315"/>
</g>
<!-- Rewrite_comp_1 -->
<g id="node7" class="node"><title>Rewrite_comp_1</title>
<ellipse fill="turquoise" stroke="turquoise" cx="363" cy="-178" rx="73.387" ry="18"/>
<text text-anchor="middle" x="363" y="-174.3" font-family="Times New Roman,serif" font-size="14.00">Rewrite_comp_1</text>
</g>
<!-- Undestand_comp_1&#45;&gt;Rewrite_comp_1 -->
<g id="edge6" class="edge"><title>Undestand_comp_1&#45;&gt;Rewrite_comp_1</title>
<path fill="none" stroke="black" d="M363,-231.697C363,-223.983 363,-214.712 363,-206.112"/>
<polygon fill="black" stroke="black" points="366.5,-206.104 363,-196.104 359.5,-206.104 366.5,-206.104"/>
</g>
<!-- Design_comp1 -->
<g id="node8" class="node"><title>Design_comp1</title>
<ellipse fill="none" stroke="turquoise" cx="363" cy="-106" rx="65.7887" ry="18"/>
<polyline fill="none" stroke="turquoise" points="406.417,-119.5 319.583,-119.5 "/>
<polyline fill="none" stroke="turquoise" points="406.417,-92.5 319.583,-92.5 "/>
<text text-anchor="middle" x="363" y="-102.3" font-family="Times New Roman,serif" font-size="14.00">Design_comp1</text>
</g>
<!-- Rewrite_comp_1&#45;&gt;Design_comp1 -->
<g id="edge7" class="edge"><title>Rewrite_comp_1&#45;&gt;Design_comp1</title>
<path fill="none" stroke="#8b7500" d="M363,-159.697C363,-151.983 363,-142.712 363,-134.112"/>
<polygon fill="#8b7500" stroke="#8b7500" points="366.5,-134.104 363,-124.104 359.5,-134.104 366.5,-134.104"/>
</g>
<!-- Implement_comp1 -->
<g id="node9" class="node"><title>Implement_comp1</title>
<ellipse fill="none" stroke="turquoise" cx="181" cy="-34" rx="79.0865" ry="18"/>
<polyline fill="none" stroke="turquoise" points="233.444,-47.5 128.556,-47.5 "/>
<polyline fill="none" stroke="turquoise" points="233.444,-20.5 128.556,-20.5 "/>
<text text-anchor="middle" x="181" y="-30.3" font-family="Times New Roman,serif" font-size="14.00">Implement_comp1</text>
</g>
<!-- Design_comp1&#45;&gt;Implement_comp1 -->
<g id="edge8" class="edge"><title>Design_comp1&#45;&gt;Implement_comp1</title>
<path fill="none" stroke="black" d="M326.607,-91.0027C298.619,-80.2382 259.696,-65.2676 229.133,-53.5129"/>
<polygon fill="black" stroke="black" points="230.119,-50.1419 219.529,-49.8188 227.606,-56.6754 230.119,-50.1419"/>
</g>
<!-- Handle_corner_case -->
<g id="node10" class="node"><title>Handle_corner_case</title>
<ellipse fill="none" stroke="turquoise" cx="363" cy="-34" rx="85.2851" ry="18"/>
<polyline fill="none" stroke="turquoise" points="419.313,-47.5 306.687,-47.5 "/>
<polyline fill="none" stroke="turquoise" points="419.313,-20.5 306.687,-20.5 "/>
<text text-anchor="middle" x="363" y="-30.3" font-family="Times New Roman,serif" font-size="14.00">Handle_corner_case</text>
</g>
<!-- Design_comp1&#45;&gt;Handle_corner_case -->
<g id="edge9" class="edge"><title>Design_comp1&#45;&gt;Handle_corner_case</title>
<path fill="none" stroke="black" d="M363,-87.6966C363,-79.9827 363,-70.7125 363,-62.1124"/>
<polygon fill="black" stroke="black" points="366.5,-62.1043 363,-52.1043 359.5,-62.1044 366.5,-62.1043"/>
</g>
<!-- User_testing_comp1 -->
<g id="node11" class="node"><title>User_testing_comp1</title>
<ellipse fill="orange" stroke="orange" cx="553" cy="-34" rx="86.3847" ry="18"/>
<text text-anchor="middle" x="553" y="-30.3" font-family="Times New Roman,serif" font-size="14.00">User_testing_comp1</text>
</g>
<!-- Design_comp1&#45;&gt;User_testing_comp1 -->
<g id="edge10" class="edge"><title>Design_comp1&#45;&gt;User_testing_comp1</title>
<path fill="none" stroke="black" d="M400.538,-91.1703C429.745,-80.4099 470.558,-65.3733 502.608,-53.5653"/>
<polygon fill="black" stroke="black" points="504.078,-56.754 512.251,-50.0127 501.658,-50.1856 504.078,-56.754"/>
</g>
<!-- ProjectInitiation -->
<g id="node12" class="node"><title>ProjectInitiation</title>
<ellipse fill="gray" stroke="gray" cx="363" cy="-402" rx="67.6881" ry="18"/>
<text text-anchor="middle" x="363" y="-398.3" font-family="Times New Roman,serif" font-size="14.00">ProjectInitiation</text>
</g>
<!-- ProjectInitiation&#45;&gt;Epic1 -->
<g id="edge4" class="edge"><title>ProjectInitiation&#45;&gt;Epic1</title>
<path fill="none" stroke="black" d="M363,-383.837C363,-376.165 363,-366.878 363,-358.053"/>
<polygon fill="black" stroke="black" points="366.5,-358.032 363,-348.032 359.5,-358.032 366.5,-358.032"/>
</g>
</g>
</svg>
